<?xml version="1.0" encoding="UTF-8" standalone="no"?>
<svg
   xmlns:dc="http://purl.org/dc/elements/1.1/"
   xmlns:cc="http://creativecommons.org/ns#"
   xmlns:rdf="http://www.w3.org/1999/02/22-rdf-syntax-ns#"
   xmlns:svg="http://www.w3.org/2000/svg"
   xmlns="http://www.w3.org/2000/svg"
   xmlns:xlink="http://www.w3.org/1999/xlink"
   xmlns:sodipodi="http://sodipodi.sourceforge.net/DTD/sodipodi-0.dtd"
   xmlns:inkscape="http://www.inkscape.org/namespaces/inkscape"
   sodipodi:docname="void-logo-simple.svg"
   inkscape:version="1.0 (6e3e5246a0, 2020-05-07)"
   id="svg8"
   version="1.1"
   viewBox="0 0 297 210"
   height="793.70081"
   width="1122.5197">
  <defs
     id="defs2">
    <linearGradient
       id="linearGradient1691"
       inkscape:collect="always">
      <stop
         id="stop1687"
         offset="0"
         style="stop-color:#4400aa;stop-opacity:1" />
      <stop
         id="stop1689"
         offset="1"
         style="stop-color:#ff0066;stop-opacity:1" />
    </linearGradient>
    <linearGradient
       inkscape:collect="always"
       id="linearGradient1540">
      <stop
         style="stop-color:#5500d5;stop-opacity:1"
         offset="0"
         id="stop1536" />
      <stop
         style="stop-color:#340082;stop-opacity:0.96470588"
         offset="1"
         id="stop1538" />
    </linearGradient>
    <linearGradient
       id="linearGradient1532"
       inkscape:collect="always">
      <stop
         id="stop1528"
         offset="0"
         style="stop-color:#330080;stop-opacity:1;" />
      <stop
         id="stop1530"
         offset="1"
         style="stop-color:#330080;stop-opacity:0;" />
    </linearGradient>
    <linearGradient
       gradientUnits="userSpaceOnUse"
       y2="-46.805355"
       x2="959.89844"
       y1="312.49988"
       x1="561.27734"
       id="linearGradient1149"
       xlink:href="#linearGradient1691"
       inkscape:collect="always" />
    <linearGradient
       gradientUnits="userSpaceOnUse"
       y2="314.27628"
       x2="437.28629"
       y1="-1.7450224e-05"
       x1="82.110962"
       id="linearGradient1157"
       xlink:href="#linearGradient1691"
       inkscape:collect="always" />
    <linearGradient
       gradientUnits="userSpaceOnUse"
       y2="469.13868"
       x2="1641.4336"
       y1="469.13868"
       x1="1592.4531"
       id="linearGradient1534"
       xlink:href="#linearGradient1532"
       inkscape:collect="always" />
    <linearGradient
       gradientUnits="userSpaceOnUse"
       y2="33.205692"
       x2="501.8269"
       y1="33.205692"
       x1="533.28491"
       id="linearGradient1548"
       xlink:href="#linearGradient1691"
       inkscape:collect="always"
       gradientTransform="rotate(41.919656,238.43619,-332.80616)" />
    <linearGradient
       gradientUnits="userSpaceOnUse"
       y2="66.395058"
       x2="304.27084"
       y1="66.108681"
       x1="423.33334"
       id="linearGradient1526-7-1"
       xlink:href="#linearGradient1540"
       inkscape:collect="always"
       gradientTransform="matrix(3.7795275,0,0,3.7795275,1556.4496,-581.1439)" />
    <linearGradient
       inkscape:collect="always"
       xlink:href="#linearGradient1691"
       id="linearGradient935"
       gradientUnits="userSpaceOnUse"
       x1="82.110962"
       y1="-1.7450224e-05"
       x2="437.28629"
       y2="314.27628" />
    <linearGradient
       inkscape:collect="always"
       xlink:href="#linearGradient1691"
       id="linearGradient937"
       gradientUnits="userSpaceOnUse"
       x1="561.27734"
       y1="312.49988"
       x2="959.89844"
       y2="-46.805355" />
    <linearGradient
       inkscape:collect="always"
       xlink:href="#linearGradient1691"
       id="linearGradient1157-0"
       x1="82.110962"
       y1="-1.7450224e-05"
       x2="437.28629"
       y2="314.27628"
       gradientUnits="userSpaceOnUse"
       gradientTransform="matrix(0.26458333,0,0,0.26458333,41.367301,-70.750858)" />
    <linearGradient
       gradientUnits="userSpaceOnUse"
       y2="167.64407"
       x2="482.63522"
       y1="3.8264146"
       x1="548.99298"
       id="linearGradient925"
       xlink:href="#linearGradient1691"
       inkscape:collect="always" />
  </defs>
  <sodipodi:namedview
     inkscape:window-maximized="1"
     inkscape:window-y="27"
     inkscape:window-x="54"
     inkscape:window-height="1016"
     inkscape:window-width="1866"
     inkscape:snap-to-guides="true"
     inkscape:guide-bbox="true"
     showguides="false"
     units="px"
     showborder="false"
     borderlayer="false"
     inkscape:pagecheckerboard="true"
     showgrid="false"
     inkscape:document-rotation="0"
     inkscape:current-layer="layer3"
     inkscape:document-units="px"
     inkscape:cy="823.06692"
     inkscape:cx="836.30178"
     inkscape:zoom="0.35355339"
     inkscape:pageshadow="2"
     inkscape:pageopacity="1"
     borderopacity="1"
     bordercolor="#1e1e1e"
     pagecolor="#ffffff"
     id="base"
     inkscape:lockguides="false">
    <sodipodi:guide
       inkscape:color="rgb(0,0,255)"
       inkscape:locked="false"
       inkscape:label=""
       id="guide839"
       orientation="0,1"
       position="0,77.708338" />
    <sodipodi:guide
       inkscape:color="rgb(0,0,255)"
       inkscape:locked="false"
       inkscape:label=""
       id="guide841"
       orientation="0,1"
       position="0,170.31251" />
    <sodipodi:guide
       inkscape:color="rgb(0,0,255)"
       inkscape:locked="false"
       inkscape:label=""
       id="guide843"
       orientation="0,1"
       position="0,117.39584" />
    <sodipodi:guide
       inkscape:color="rgb(0,0,255)"
       inkscape:locked="false"
       inkscape:label=""
       id="guide845"
       orientation="-1,0"
       position="0,210" />
    <sodipodi:guide
       inkscape:color="rgb(0,0,255)"
       inkscape:locked="false"
       inkscape:label=""
       id="guide866"
       orientation="-0.70710678,-0.70710678"
       position="71.005458,139.13186" />
    <sodipodi:guide
       inkscape:color="rgb(0,0,255)"
       inkscape:locked="false"
       inkscape:label=""
       id="guide868"
       orientation="-0.70710678,-0.70710678"
       position="198.11404,77.708338" />
    <sodipodi:guide
       inkscape:color="rgb(0,0,255)"
       inkscape:locked="false"
       inkscape:label=""
       id="guide896"
       orientation="-1,0"
       position="46.302083,210.00001" />
    <sodipodi:guide
       inkscape:color="rgb(0,0,255)"
       inkscape:locked="false"
       inkscape:label=""
       id="guide982"
       orientation="-1,0"
       position="132.42475,77.708338" />
    <sodipodi:guide
       id="guide1032"
       orientation="0.70710678,-0.70710678"
       position="265.04783,210.46242"
       inkscape:locked="false" />
    <sodipodi:guide
       inkscape:color="rgb(0,0,255)"
       inkscape:locked="false"
       inkscape:label=""
       id="guide1034"
       orientation="-1,0"
       position="264.58333,210" />
    <sodipodi:guide
       id="guide1036"
       orientation="0.70710678,-0.70710678"
       position="205.4655,216.61458"
       inkscape:locked="false" />
    <sodipodi:guide
       inkscape:color="rgb(0,0,255)"
       inkscape:locked="false"
       inkscape:label=""
       id="guide1038"
       orientation="-1,0"
       position="215.63542,210.00001" />
    <sodipodi:guide
       inkscape:color="rgb(0,0,255)"
       inkscape:locked="false"
       inkscape:label=""
       id="guide1042"
       orientation="-1,0"
       position="304.27083,185.19531" />
    <sodipodi:guide
       inkscape:color="rgb(0,0,255)"
       inkscape:locked="false"
       inkscape:label=""
       id="guide1044"
       orientation="-1,0"
       position="423.33333,187.78322" />
    <sodipodi:guide
       inkscape:color="rgb(0,0,255)"
       inkscape:locked="false"
       inkscape:label=""
       id="guide1049"
       orientation="-1,0"
       position="463.02083,210.00001" />
    <sodipodi:guide
       inkscape:color="rgb(0,0,255)"
       inkscape:locked="false"
       inkscape:label=""
       id="guide1051"
       orientation="-1,0"
       position="489.47917,210.00001" />
    <sodipodi:guide
       inkscape:color="rgb(0,0,255)"
       inkscape:locked="false"
       inkscape:label=""
       id="guide1053"
       orientation="-1,0"
       position="529.16667,192.16811" />
    <sodipodi:guide
       inkscape:color="rgb(0,0,255)"
       inkscape:locked="false"
       inkscape:label=""
       id="guide1055"
       orientation="-1,0"
       position="555.625,210.00001" />
    <sodipodi:guide
       inkscape:color="rgb(0,0,255)"
       inkscape:locked="false"
       inkscape:label=""
       id="guide1059"
       orientation="-1,0"
       position="595.3125,210.00001" />
    <sodipodi:guide
       inkscape:color="rgb(0,0,255)"
       inkscape:locked="false"
       inkscape:label=""
       id="guide1100"
       orientation="-1,0"
       position="635,210.00001" />
    <sodipodi:guide
       inkscape:color="rgb(0,0,255)"
       inkscape:locked="false"
       inkscape:label=""
       id="guide1666"
       orientation="-1,0"
       position="751.41667,186.06106" />
    <sodipodi:guide
       inkscape:color="rgb(0,0,255)"
       inkscape:locked="false"
       inkscape:label=""
       id="guide1668"
       orientation="-1,0"
       position="711.72917,210.00001" />
    <sodipodi:guide
       id="guide917"
       orientation="1,0"
       position="333.7662,135.91289" />
  </sodipodi:namedview>
  <metadata
     id="metadata5">
    <rdf:RDF>
      <cc:Work
         rdf:about="">
        <dc:format>image/svg+xml</dc:format>
        <dc:type
           rdf:resource="http://purl.org/dc/dcmitype/StillImage" />
        <dc:title />
      </cc:Work>
    </rdf:RDF>
  </metadata>
  <g
     inkscape:label="Background"
     id="layer2"
     inkscape:groupmode="layer">
    <rect
       inkscape:export-ydpi="96"
       inkscape:export-xdpi="96"
       inkscape:export-filename="/home/canuto/Documents/Repos/void-logo/export/logo_typographique.png"
       y="-39.183315"
       x="-39.045998"
       height="392.98117"
       width="684.35193"
       id="rect1716"
       style="opacity:1;fill:#1c0046;fill-opacity:1;stroke:#1a1a1a;stroke-width:1.25748;stroke-linecap:round;stroke-linejoin:round;stroke-opacity:0;paint-order:stroke fill markers;stop-color:#000000" />
  </g>
  <g
     inkscape:label="Baseline"
     id="layer3"
     inkscape:groupmode="layer">
    <text
       id="text901"
       y="134.18808"
       x="331.10959"
       style="font-style:normal;font-variant:normal;font-weight:normal;font-stretch:normal;font-size:129.904px;line-height:1.25;font-family:MuseoModerno, '@wght=700';-inkscape-font-specification:'MuseoModerno, @wght=700';font-variant-ligatures:normal;font-variant-position:normal;font-variant-caps:normal;font-variant-numeric:normal;font-variant-alternates:normal;font-variant-east-asian:normal;font-variation-settings:normal;text-indent:0;text-align:start;text-decoration:none;text-decoration-line:none;text-decoration-style:solid;text-decoration-color:#000000;letter-spacing:0px;word-spacing:0px;text-transform:none;writing-mode:lr-tb;direction:ltr;text-orientation:mixed;dominant-baseline:auto;baseline-shift:baseline;text-anchor:start;white-space:normal;shape-padding:0;shape-margin:0;opacity:1;vector-effect:none;fill:url(#linearGradient925);fill-opacity:1;stroke:none;stroke-width:1.73979;stroke-linecap:butt;stroke-linejoin:miter;stroke-miterlimit:4;stroke-dasharray:none;stroke-dashoffset:0;stroke-opacity:1;stop-color:#000000;stop-opacity:1"
       xml:space="preserve"><tspan
         style="font-style:normal;font-variant:normal;font-weight:normal;font-stretch:normal;font-size:129.904px;font-family:MuseoModerno, '@wght=700';-inkscape-font-specification:'MuseoModerno, @wght=700';font-variant-ligatures:normal;font-variant-caps:normal;font-variant-numeric:normal;font-variant-east-asian:normal;fill:url(#linearGradient925);fill-opacity:1;stroke-width:1.73979"
         y="134.18808"
         x="331.10959"
         id="tspan899"
         sodipodi:role="line">void</tspan></text>
    <text
       id="text909"
       y="191.15535"
       x="349.89624"
       style="font-style:normal;font-variant:normal;font-weight:normal;font-stretch:normal;font-size:32.7811px;line-height:1.25;font-family:MuseoModerno, '@wght=700', '@wght=300';-inkscape-font-specification:'MuseoModerno, @wght=700, @wght=300';font-variant-ligatures:normal;font-variant-position:normal;font-variant-caps:normal;font-variant-numeric:normal;font-variant-alternates:normal;font-variant-east-asian:normal;font-variation-settings:normal;text-indent:0;text-align:start;text-decoration:none;text-decoration-line:none;text-decoration-style:solid;text-decoration-color:#000000;letter-spacing:0px;word-spacing:0px;text-transform:none;writing-mode:lr-tb;direction:ltr;text-orientation:mixed;dominant-baseline:auto;baseline-shift:baseline;text-anchor:start;white-space:normal;shape-padding:0;shape-margin:0;opacity:1;vector-effect:none;fill:#ffffff;fill-opacity:1;stroke:none;stroke-width:3.07321;stroke-linecap:butt;stroke-linejoin:miter;stroke-miterlimit:4;stroke-dasharray:none;stroke-dashoffset:0;stroke-opacity:1;stop-color:#000000;stop-opacity:1"
       xml:space="preserve"><tspan
         style="stroke-width:3.07321"
         y="191.15535"
         x="349.89624"
         id="tspan907"
         sodipodi:role="line">agence de </tspan><tspan
         id="tspan911"
         style="stroke-width:3.07321"
         y="232.13173"
         x="349.89624"
         sodipodi:role="line">conception </tspan><tspan
         id="tspan913"
         style="stroke-width:3.07321"
         y="273.10812"
         x="349.89624"
         sodipodi:role="line">digitale</tspan></text>
  </g>
  <g
     id="layer1"
     inkscape:groupmode="layer"
     inkscape:label="Logo typographique">
    <path
       transform="scale(0.26458333)"
       d="m -144.20117,-785.50586 c 2.5427,-3.54497 5.17473,-7.0204 7.89453,-10.42383 2.7203,-3.40414 5.52912,-6.73646 8.41992,-9.99219 2.8908,-3.25567 5.86337,-6.43465 8.91797,-9.53515 3.0545,-3.1005 6.19074,-6.12204 9.40234,-9.06055 3.2117,-2.93851 6.49933,-5.79478 9.861332,-8.56445 3.361999,-2.76971 6.797033,-5.45276 10.302734,-8.04688 3.448902,-2.55212 6.969213,-5.01495 10.550782,-7.39062 -25.439668,16.85533 -47.586238,38.24844 -65.349608,63.01367 z"
       style="opacity:1;fill:#5500d5;fill-opacity:1;stroke-width:3.648;stroke-linecap:round;stroke-linejoin:round;stroke-opacity:0;paint-order:stroke fill markers;stop-color:#000000"
       id="circle1204-3" />
    <path
       transform="scale(0.26458333)"
       d="m -154.7793,-769.63281 c 2.088,-3.43627 4.25761,-6.81758 6.50391,-10.14258 1.18189,-1.74949 2.43234,-3.44748 3.66601,-5.1582 -3.55253,4.98229 -6.98315,10.05607 -10.16992,15.30078 z"
       style="opacity:1;fill:#5500d5;fill-opacity:1;stroke-width:3.648;stroke-linecap:round;stroke-linejoin:round;stroke-opacity:0;paint-order:stroke fill markers;stop-color:#000000"
       id="path1397" />
    <path
       transform="scale(0.26458333)"
       d="m -141.30664,-490.41992 c -2.3995,-3.20848 -4.72235,-6.47574 -6.96875,-9.80078 -2.2463,-3.325 -4.41591,-6.70631 -6.50391,-10.14258 4.17589,6.87259 8.67366,13.52633 13.47266,19.94336 z"
       style="opacity:1;fill:#5500d5;fill-opacity:1;stroke-width:3.648;stroke-linecap:round;stroke-linejoin:round;stroke-opacity:0;paint-order:stroke fill markers;stop-color:#000000"
       id="path1395" />
    <path
       transform="scale(0.26458333)"
       d="m -64.335938,-422.58594 c -5.596999,-3.18281 -11.097559,-6.51757 -16.414062,-10.10937 -5.324598,-3.59724 -10.46062,-7.44763 -15.482422,-11.4336 10.03648,7.96642 20.69332,15.17217 31.896484,21.54297 z"
       style="opacity:1;fill:#5500d5;fill-opacity:1;stroke-width:3.648;stroke-linecap:round;stroke-linejoin:round;stroke-opacity:0;paint-order:stroke fill markers;stop-color:#000000"
       id="path1393" />
    <path
       transform="scale(0.26458333)"
       d="m 1046.7109,104.49219 c 2.5427,-3.54499 5.1748,-7.020413 7.8946,-10.423831 2.7203,-3.404129 5.5291,-6.736475 8.4199,-9.992187 2.8908,-3.255712 5.8634,-6.434656 8.918,-9.535156 3.0545,-3.1005 6.1907,-6.122053 9.4023,-9.060547 3.2117,-2.938495 6.4993,-5.794758 9.8613,-8.564453 3.362,-2.769695 6.7971,-5.452774 10.3028,-8.046875 3.4534,-2.555459 6.978,-5.021877 10.5644,-7.400391 -25.4455,16.856759 -47.5966,38.253673 -65.3633,63.02344 z"
       style="opacity:1;fill:#330080;fill-opacity:0.964706;stroke-width:3.648;stroke-linecap:round;stroke-linejoin:round;stroke-opacity:0;paint-order:stroke fill markers;stop-color:#000000"
       id="circle1204" />
    <path
       transform="scale(0.26458333)"
       d="m 1036.1328,120.36523 c 2.088,-3.43629 4.2576,-6.81755 6.5039,-10.14257 1.2321,-1.8238 2.5378,-3.59238 3.8223,-5.37696 -3.6099,5.05122 -7.0928,10.19802 -10.3262,15.51953 z"
       style="opacity:1;fill:#330080;fill-opacity:0.964706;stroke-width:3.648;stroke-linecap:round;stroke-linejoin:round;stroke-opacity:0;paint-order:stroke fill markers;stop-color:#000000"
       id="path1351" />
    <path
       transform="scale(0.26458333)"
       d="m 1002.8203,211.92773 c 0.6323,-4.13798 1.3667,-8.2439 2.1992,-12.3125 0.8326,-4.0686 1.7634,-8.09977 2.791,-12.09375 -2.0552,7.98796 -3.7256,16.13028 -4.9902,24.40625 z"
       style="opacity:1;fill:#330080;fill-opacity:0.964706;stroke-width:3.648;stroke-linecap:round;stroke-linejoin:round;stroke-opacity:0;paint-order:stroke fill markers;stop-color:#000000"
       id="path1349" />
    <path
       transform="scale(0.26458333)"
       d="m 1526.1445,498.63672 c -4.1909,0.43745 -8.4121,0.77028 -12.6621,0.99805 -4.2499,0.22776 -8.5283,0.3504 -12.832,0.36328 8.6075,-0.0257 17.1122,-0.48642 25.4941,-1.36133 z"
       style="opacity:1;fill:#330080;fill-opacity:0.964706;stroke-width:3.648;stroke-linecap:round;stroke-linejoin:round;stroke-opacity:0;paint-order:stroke fill markers;stop-color:#000000"
       id="path1337" />
    <path
       transform="scale(0.26458333)"
       d="m 1641.4336,456.05469 c -3.771,2.59538 -7.597,5.11797 -11.5137,7.50781 -3.4257,2.0903 -6.9059,4.09986 -10.4375,6.02734 -2.3317,1.27264 -4.7197,2.45258 -7.0957,3.65235 -6.4864,3.27533 -13.1413,6.26379 -19.9336,8.98047 17.3673,-6.92936 33.7866,-15.71055 48.9805,-26.16797 z"
       style="opacity:1;fill:url(#linearGradient1534);fill-opacity:0.964706;stroke-width:3.648;stroke-linecap:round;stroke-linejoin:round;stroke-opacity:0;paint-order:stroke fill markers;stop-color:#000000"
       id="path1335" />
    <path
       transform="scale(0.26458333)"
       d="m 1707.2188,110.26562 c 2.2448,3.32434 4.4114,6.70517 6.498,10.14063 2.0866,3.43546 4.0925,6.92541 6.0156,10.4668 1.9228,3.54088 3.7635,7.13381 5.5176,10.77539 -5.2628,-10.92648 -11.2966,-21.40982 -18.0312,-31.38282 z"
       style="opacity:1;fill:#330080;fill-opacity:0.964706;stroke-width:3.648;stroke-linecap:round;stroke-linejoin:round;stroke-opacity:0;paint-order:stroke fill markers;stop-color:#000000"
       id="path1333" />
    <path
       transform="scale(0.26458333)"
       d="m 1500.6504,349.99805 c 3.4298,-0.0256 6.8188,-0.22324 10.1582,-0.58594 0.7176,-0.0779 1.4062,-0.24485 2.1191,-0.33789 1.1451,-0.14978 2.266,-0.35478 3.3985,-0.54297 -5.118,0.84859 -10.3267,1.42684 -15.6758,1.4668 z"
       style="opacity:1;fill:#330080;fill-opacity:0.964706;stroke-width:3.648;stroke-linecap:round;stroke-linejoin:round;stroke-opacity:0;paint-order:stroke fill markers;stop-color:#000000"
       id="path1331" />
    <path
       transform="scale(0.26458333)"
       d="M 1490.4883,349.99805 A 174.99999,174.99999 0 0 0 1491,350 a 174.99999,174.99999 0 0 0 0.6387,-0.002 c -0.081,1e-5 -1.06,-10e-6 -1.1504,0 z"
       style="opacity:1;fill:#330080;fill-opacity:0.964706;stroke-width:3.648;stroke-linecap:round;stroke-linejoin:round;stroke-opacity:0;paint-order:stroke fill markers;stop-color:#000000"
       id="path1329" />
    <path
       transform="scale(0.26458333)"
       d="m 1036.1328,120.36523 c 2.088,-3.43629 4.2576,-6.81755 6.5039,-10.14257 1.3127,-1.94306 2.7069,-3.82488 4.0723,-5.72852 -3.7022,5.16157 -7.2679,10.42632 -10.5762,15.87109 z"
       style="opacity:1;fill:#00ff00;fill-opacity:0.964706;stroke-width:3.648;stroke-linecap:round;stroke-linejoin:round;stroke-opacity:0;paint-order:stroke fill markers;stop-color:#000000"
       id="path1276" />
    <path
       transform="scale(0.26458333)"
       d="m 1007.8105,187.52148 c 1.0277,-3.99397 2.1518,-7.94916 3.3692,-11.86328 1.2174,-3.91412 2.5277,-7.78816 3.9297,-11.61718 -2.804,7.65805 -5.2436,15.49251 -7.2989,23.48046 z"
       style="opacity:1;fill:#00ff00;fill-opacity:0.964706;stroke-width:3.648;stroke-linecap:round;stroke-linejoin:round;stroke-opacity:0;paint-order:stroke fill markers;stop-color:#000000"
       id="path1304" />
    <path
       transform="scale(0.26458333)"
       d="m 1002.8203,211.92773 c 0.6323,-4.13798 1.3667,-8.2439 2.1992,-12.3125 0.8326,-4.0686 1.7634,-8.09977 2.791,-12.09375 -2.0552,7.98796 -3.7256,16.13028 -4.9902,24.40625 z"
       style="opacity:1;fill:#00ff00;fill-opacity:0.964706;stroke-width:3.648;stroke-linecap:round;stroke-linejoin:round;stroke-opacity:0;paint-order:stroke fill markers;stop-color:#000000"
       id="path1302" />
    <path
       transform="scale(0.26458333)"
       d="m 1526.1445,498.63672 c -4.1909,0.43745 -8.4121,0.77028 -12.6621,0.99805 -4.2499,0.22776 -8.5283,0.3504 -12.832,0.36328 8.6075,-0.0257 17.1122,-0.48643 25.4941,-1.36133 z"
       style="opacity:1;fill:#00ff00;fill-opacity:0.964706;stroke-width:3.648;stroke-linecap:round;stroke-linejoin:round;stroke-opacity:0;paint-order:stroke fill markers;stop-color:#000000"
       id="path1288" />
    <path
       transform="scale(0.26458333)"
       d="m 1629.9199,463.5625 c -3.4257,2.0903 -6.9059,4.09986 -10.4375,6.02734 -2.3317,1.27264 -4.7197,2.45258 -7.0957,3.65235 5.9742,-3.01671 11.846,-6.2095 17.5332,-9.67969 z"
       style="opacity:1;fill:#00ff00;fill-opacity:0.964706;stroke-width:3.648;stroke-linecap:round;stroke-linejoin:round;stroke-opacity:0;paint-order:stroke fill markers;stop-color:#000000"
       id="path1286" />
    <path
       transform="scale(0.26458333)"
       d="m 1512.9277,349.07422 c -4.0297,0.52711 -8.1109,0.8927 -12.2773,0.92383 3.4298,-0.0256 6.8188,-0.22324 10.1582,-0.58594 0.7176,-0.0779 1.4062,-0.24485 2.1191,-0.33789 z"
       style="opacity:1;fill:#00ff00;fill-opacity:0.964706;stroke-width:3.648;stroke-linecap:round;stroke-linejoin:round;stroke-opacity:0;paint-order:stroke fill markers;stop-color:#000000"
       id="path1282" />
    <path
       transform="scale(0.26458333)"
       d="m 1525.2598,346.62695 c -2.9279,0.76745 -5.9078,1.40151 -8.9336,1.9043 1.4455,-0.23967 2.9199,-0.3924 4.3437,-0.69336 1.5592,-0.32958 3.0584,-0.80963 4.5899,-1.21094 z"
       style="opacity:1;fill:#00ff00;fill-opacity:0.964706;stroke-width:3.648;stroke-linecap:round;stroke-linejoin:round;stroke-opacity:0;paint-order:stroke fill markers;stop-color:#000000"
       id="path1280" />
    <g
       transform="matrix(0,1,1,0,171.44252,28.467847)"
       id="g933">
      <path
         transform="scale(0.26458333)"
         d="M 187.61914,-0.06445312 C 147.56577,-0.44629051 101.69987,14.383219 43.244141,43.626953 104.1182,103.80543 256.11007,255.97994 375.74805,375.49414 421.28731,420.98629 479.07943,478.84843 500.50781,500 h 0.0176 c 19.56222,-19.31571 52.62935,-52.31989 92.53711,-92.25781 9.48483,-9.492 21.57983,-21.62985 31.74805,-31.81446 C 580.76726,331.81075 549.79135,300.89802 500.0625,251.0625 413.38075,164.19482 329.0828,79.788272 290.72461,41.947266 257.74046,14.076259 225.24503,0.2942426 187.61914,-0.06445312 Z"
         style="fill:url(#linearGradient935);fill-opacity:1;stroke-width:3.648;stroke-linecap:round;stroke-linejoin:round;stroke-opacity:0;paint-order:stroke fill markers;stop-color:#000000"
         id="path929" />
      <path
         transform="scale(0.26458333)"
         sodipodi:nodetypes="sccccs"
         d="M 812.64258,-0.20117188 C 775.01669,0.15752369 742.51931,13.941499 709.53516,41.8125 671.0503,79.778449 587.052,163.87411 500.0625,251.05078 543.27686,294.35808 585.10556,336.28061 624.75,376.00195 742.80109,257.75743 899.2582,100.59158 957.01758,43.492188 898.56184,14.248458 852.69595,-0.58300907 812.64258,-0.20117188 Z"
         style="opacity:1;fill:url(#linearGradient937);fill-opacity:1;stroke-width:3.648;stroke-linecap:round;stroke-linejoin:round;stroke-opacity:0;paint-order:stroke fill markers;stop-color:#000000"
         id="path931" />
    </g>
    <g
       id="g927"
       transform="rotate(90,59.431137,87.898984)">
      <path
         id="path1022"
         style="fill:url(#linearGradient1157);fill-opacity:1;stroke-width:3.648;stroke-linecap:round;stroke-linejoin:round;stroke-opacity:0;paint-order:stroke fill markers;stop-color:#000000"
         d="M 187.61914,-0.06445312 C 147.56577,-0.44629051 101.69987,14.383219 43.244141,43.626953 104.1182,103.80543 256.11007,255.97994 375.74805,375.49414 421.28731,420.98629 479.07943,478.84843 500.50781,500 h 0.0176 c 19.56222,-19.31571 52.62935,-52.31989 92.53711,-92.25781 9.48483,-9.492 21.57983,-21.62985 31.74805,-31.81446 C 580.76726,331.81075 549.79135,300.89802 500.0625,251.0625 413.38075,164.19482 329.0828,79.788272 290.72461,41.947266 257.74046,14.076259 225.24503,0.2942426 187.61914,-0.06445312 Z"
         transform="scale(0.26458333)" />
      <path
         d="m 91.008203,-70.767909 c -10.597458,-0.101029 -22.732811,3.822612 -38.199223,11.560016 16.106262,15.922223 56.32078,56.1850609 87.975,87.80653 12.04893,12.03646 27.33976,27.34582 33.00935,32.942168 h 0.005 c 5.17583,-5.110608 13.92484,-13.842968 24.48377,-24.409878 2.50953,-2.51142 5.70966,-5.72289 8.40001,-8.41757 C 195.02864,17.040737 186.83293,8.8617435 173.67551,-4.3239051 150.74096,-27.307644 128.43713,-49.640211 118.2882,-59.652308 109.56114,-67.026513 100.96339,-70.673006 91.008203,-70.767909 Z"
         style="fill:url(#linearGradient1157-0);fill-opacity:1;stroke-width:0.9652;stroke-linecap:round;stroke-linejoin:round;stroke-opacity:0;paint-order:stroke fill markers;stop-color:#000000"
         id="path1022-6" />
      <path
         id="path998"
         style="opacity:1;fill:url(#linearGradient1149);fill-opacity:1;stroke-width:3.648;stroke-linecap:round;stroke-linejoin:round;stroke-opacity:0;paint-order:stroke fill markers;stop-color:#000000"
         d="M 812.64258,-0.20117188 C 775.01669,0.15752369 742.51931,13.941499 709.53516,41.8125 671.0503,79.778449 587.052,163.87411 500.0625,251.05078 543.27686,294.35808 585.10556,336.28061 624.75,376.00195 742.80109,257.75743 899.2582,100.59158 957.01758,43.492188 898.56184,14.248458 852.69595,-0.58300907 812.64258,-0.20117188 Z"
         sodipodi:nodetypes="sccccs"
         transform="scale(0.26458333)" />
    </g>
  </g>
</svg>
